<?xml version="1.0" encoding="iso-8859-1"?>
<!-- Generator: Adobe Illustrator 19.2.0, SVG Export Plug-In . SVG Version: 6.00 Build 0)  -->
<svg xmlns="http://www.w3.org/2000/svg" xmlns:xlink="http://www.w3.org/1999/xlink" version="1.1" id="Layer_1" x="0px" y="0px" viewBox="0 0 40 40" style="enable-background:new 0 0 40 40;" xml:space="preserve">
<g>
	<path style="fill:#B6DCFE;" d="M4.511,38.5c0.263-6.11,5.316-11,11.489-11h8c6.173,0,11.227,4.89,11.489,11H4.511z"/>
	<g>
		<path style="fill:#4788C7;" d="M24,28c5.729,0,10.448,4.401,10.955,10l-29.91,0C5.552,32.401,10.271,28,16,28H24 M24,27h-8    C9.373,27,4,32.373,4,39v0h32v0C36,32.373,30.627,27,24,27L24,27z"/>
	</g>
</g>
<g>
	<path style="fill:#B6DCFE;" d="M24.061,33.5c-0.396,0-0.777-0.127-1.104-0.369L20,30.947l-2.956,2.183   c-0.327,0.242-0.709,0.369-1.104,0.369c0,0,0,0,0,0c-0.822,0-1.757-0.589-1.87-1.682l-0.422-4.063   C14.445,27.585,15.234,27.5,16,27.5h8c0.766,0,1.555,0.085,2.353,0.254l-0.422,4.063C25.817,32.91,24.882,33.5,24.061,33.5z"/>
	<g>
		<path style="fill:#4788C7;" d="M24,28c0.59,0,1.195,0.053,1.808,0.159l-0.374,3.607C25.351,32.567,24.664,33,24.06,33    c-0.288,0-0.567-0.094-0.807-0.271l-2.659-1.964L20,30.326l-0.594,0.439l-2.659,1.964C16.506,32.906,16.227,33,15.94,33    c-0.604,0-1.29-0.432-1.373-1.234l-0.374-3.607C14.805,28.053,15.41,28,16,28H24 M24,27h-8c-1,0-1.966,0.136-2.895,0.366    l0.467,4.503C13.705,33.158,14.792,34,15.94,34c0.478,0,0.967-0.146,1.401-0.467L20,31.569l2.659,1.964    C23.094,33.854,23.582,34,24.06,34c1.147,0,2.234-0.842,2.368-2.131l0.467-4.503C25.966,27.136,25,27,24,27L24,27z"/>
	</g>
</g>
<g>
	<polygon style="fill:#FFFFFF;" points="15.5,27.803 15.5,22.5 24.5,22.5 24.5,27.803 20,30.979  "/>
	<g>
		<path style="fill:#4788C7;" d="M24,23v4.544l-4,2.823l-4-2.823V23H24 M25,22H15v6.062l5,3.529l5-3.529V22L25,22z"/>
	</g>
</g>
<g>
	<g>
		<path style="fill:#FFFFFF;" d="M27.143,19.214c-1.3,0-2.357-1.058-2.357-2.357s1.058-2.357,2.357-2.357    c1.963,0,2.357,0.538,2.357,1.405C29.5,17.319,28.335,19.214,27.143,19.214z M12.857,19.214c-1.192,0-2.357-1.895-2.357-3.31    c0-0.867,0.394-1.405,2.357-1.405c1.3,0,2.357,1.057,2.357,2.357S14.157,19.214,12.857,19.214z"/>
	</g>
	<g>
		<path style="fill:#4788C7;" d="M27.143,15C29,15,29,15.481,29,15.905c0,1.234-1.041,2.81-1.857,2.81    c-1.024,0-1.857-0.833-1.857-1.857C25.286,15.833,26.119,15,27.143,15 M12.857,15c1.024,0,1.857,0.833,1.857,1.857    c0,1.024-0.833,1.857-1.857,1.857c-0.816,0-1.857-1.575-1.857-2.81C11,15.481,11,15,12.857,15 M27.143,14    c-1.578,0-2.857,1.279-2.857,2.857s1.279,2.857,2.857,2.857c1.578,0,2.857-2.232,2.857-3.81C30,14.327,28.721,14,27.143,14    L27.143,14z M12.857,14C11.279,14,10,14.327,10,15.905c0,1.578,1.279,3.81,2.857,3.81c1.578,0,2.857-1.279,2.857-2.857    S14.435,14,12.857,14L12.857,14z"/>
	</g>
</g>
<g>
	<g>
		<path style="fill:#FFFFFF;" d="M20,25.5c-0.604,0-1.172-0.218-1.641-0.63l-0.09-0.08l-0.117-0.03    C14.824,23.916,12.5,20.93,12.5,17.5V8.202c0-1.827,1.486-3.313,3.312-3.313h8.375c1.827,0,3.313,1.486,3.313,3.313V17.5    c0,3.43-2.324,6.416-5.652,7.26l-0.117,0.03l-0.09,0.08C21.172,25.282,20.604,25.5,20,25.5z"/>
	</g>
	<g>
		<path style="fill:#4788C7;" d="M24.187,5.389C25.738,5.389,27,6.651,27,8.202V17.5c0,3.201-2.169,5.987-5.275,6.776l-0.233,0.059    l-0.181,0.159C21.048,24.725,20.608,25,20,25s-1.048-0.275-1.311-0.506l-0.181-0.159l-0.233-0.059    C15.169,23.487,13,20.701,13,17.5V8.202c0-1.551,1.262-2.813,2.813-2.813H24.187 M24.187,4.389h-8.375    C13.707,4.389,12,6.096,12,8.202V17.5c0,3.737,2.566,6.866,6.029,7.745C18.557,25.709,19.242,26,20,26s1.443-0.291,1.971-0.755    C25.434,24.366,28,21.237,28,17.5V8.202C28,6.096,26.293,4.389,24.187,4.389L24.187,4.389z"/>
	</g>
</g>
<g>
	<path style="fill:#B6DCFE;" d="M28,25.5c-1.767,0-3.411-0.911-4.27-1.484c1.045-0.659,2.77-2.223,2.77-5.374v-4.724   c0-2.41-2.086-4.223-2.175-4.298l-0.43-0.368l-0.313,0.473c-0.021,0.031-2.135,3.156-6.651,3.78   c-2.358,0.325-3.432,2.109-3.432,3.628v1.509c0,3.193,1.708,4.735,2.757,5.38C15.398,24.596,13.764,25.5,12,25.5   c-1.786,0-3.378-0.935-4.159-1.484c0.881-0.695,2.445-2.24,2.445-4.444c0-0.928-0.176-1.909-0.362-2.948   C9.715,15.462,9.5,14.262,9.5,13c0-8.488,5.387-11.5,10-11.5c3.802,0,5.031,2.675,5.043,2.703L24.674,4.5H25   c3.495,0,5.5,2.733,5.5,7.5c0,1.342-0.268,2.836-0.528,4.281C29.729,17.634,29.5,18.913,29.5,20c0,1.844,1.459,2.852,2.642,3.281   C31.434,24.092,29.928,25.5,28,25.5z"/>
	<g>
		<path style="fill:#4788C7;" d="M19.5,2c3.427,0,4.543,2.315,4.586,2.405L24.349,5H25c3.224,0,5,2.486,5,7    c0,1.298-0.264,2.769-0.52,4.193C29.233,17.569,29,18.868,29,20c0,1.765,1.143,2.857,2.292,3.452C30.551,24.167,29.388,25,28,25    c-1.274,0-2.497-0.524-3.357-1.01C25.732,23.107,27,21.472,27,18.643v-4.724c0-2.638-2.254-4.596-2.35-4.678l-0.858-0.728    l-0.626,0.936c-0.081,0.121-2.03,2.971-6.303,3.561C14.209,13.376,13,15.404,13,17.133v1.509c0,2.86,1.252,4.486,2.339,5.359    C14.485,24.484,13.273,25,12,25c-1.313,0-2.525-0.556-3.331-1.041c0.942-0.88,2.117-2.379,2.117-4.388    c0-0.972-0.18-1.975-0.37-3.036C10.211,15.396,10,14.218,10,13C10,4.881,15.118,2,19.5,2 M19.5,1C14.212,1,9,4.694,9,13    c0,2.454,0.786,4.682,0.786,6.571C9.786,22.327,7,24,7,24s2.254,2,5,2c2.794,0,5.211-2.056,5.211-2.056S14,22.918,14,18.643    c0-0.613,0-0.56,0-1.509c0-1.354,0.942-2.849,3-3.134c4.816-0.665,7-4,7-4s2,1.711,2,3.919c0,1.044,0,3.009,0,4.724    c0,4.194-3.214,5.302-3.214,5.302S25.225,26,28,26c3.005,0,5-3,5-3s-3-0.535-3-3c0-2.19,1-5.352,1-8c0-5.761-2.766-8-6-8    C25,4,23.672,1,19.5,1L19.5,1z"/>
	</g>
</g>
</svg>
